<svg xmlns="http://www.w3.org/2000/svg" viewBox="0 0 66 60">
    <style>.a{fill:#323A47;}</style>
    <g fill="none">
        <g transform="translate(-286 -289)translate(161 242)translate(116.957031 46.546875)translate(9 0.556219)">
            <polyline
                    points="51 28.8 13.1 28.8 13.1 25.1 29.5 25.1 13.1 13.3 13.1 0.1 32.1 14.8 51 0.1 51 13.3 34.6 25.1 51 25.1 51 28.8"
                    fill="#7D3140"/>
            <polyline
                    points="11.1 45.1 21.2 34.6 15.8 34.6 4.4 46.6 4.4 34.6 0 34.6 0 58.9 4.4 58.9 4.4 51.9 8.1 48.1 16.2 58.9 16.3 58.9 21.6 58.9 11.1 45.1"
                    class="a"/>
            <path d="M27.7 38.8L32.4 38.8C34 38.8 35.2 39.2 36.2 39.9 37.1 40.6 37.5 41.6 37.5 43L37.5 43.1C37.5 44.3 37.1 45.3 36.2 46.1 35.3 46.9 34 47.3 32.4 47.3L27.7 47.3 27.7 38.8ZM41.3 39.6C40.9 38.6 40.3 37.7 39.5 37 38.7 36.3 37.7 35.7 36.6 35.4 35.5 35 34.2 34.8 32.8 34.8L23.3 34.8 23.3 58.9 27.7 58.9 27.7 51.2 32.3 51.2C33.6 51.2 34.9 51 36.1 50.7 37.2 50.3 38.3 49.8 39.1 49.1 40 48.4 40.7 47.5 41.2 46.5 41.7 45.5 42 44.3 42 42.9L42 42.9C42 41.7 41.7 40.5 41.3 39.6Z"
                  class="a"/>
            <path d="M60 34.7L60 48.6C60 50.8 59.5 52.4 58.5 53.5 57.4 54.6 55.9 55.2 54.1 55.2 52.2 55.2 50.8 54.6 49.7 53.4 48.7 52.3 48.1 50.6 48.1 48.4L48.1 34.7 43.8 34.7 43.8 48.6C43.8 50.3 44 51.9 44.5 53.2 45 54.5 45.7 55.6 46.6 56.5 47.5 57.4 48.6 58.1 49.8 58.5 51 59 52.5 59.2 54 59.2 55.6 59.2 57.1 59 58.3 58.5 59.6 58.1 60.7 57.4 61.6 56.5 62.5 55.6 63.2 54.5 63.7 53.1 64.2 51.8 64.4 50.2 64.4 48.4L64.4 34.7 60 34.7"
                  class="a"/>
        </g>
    </g>
</svg>