<?xml version="1.0" encoding="UTF-8" standalone="no"?>
<!-- Generator: Adobe Illustrator 17.1.0, SVG Export Plug-In . SVG Version: 6.00 Build 0)  -->

<svg
   xmlns:dc="http://purl.org/dc/elements/1.1/"
   xmlns:cc="http://creativecommons.org/ns#"
   xmlns:rdf="http://www.w3.org/1999/02/22-rdf-syntax-ns#"
   xmlns:svg="http://www.w3.org/2000/svg"
   xmlns="http://www.w3.org/2000/svg"
   xmlns:sodipodi="http://sodipodi.sourceforge.net/DTD/sodipodi-0.dtd"
   xmlns:inkscape="http://www.inkscape.org/namespaces/inkscape"
   version="1.1"
   id="Layer_1"
   x="0px"
   y="0px"
   viewBox="0 0 327.8 35.4"
   enable-background="new 0 0 327.8 35.4"
   xml:space="preserve"
   inkscape:version="0.91 r13725"
   sodipodi:docname="popr-logo.svg"><metadata
     id="metadata67"><rdf:RDF><cc:Work
         rdf:about=""><dc:format>image/svg+xml</dc:format><dc:type
           rdf:resource="http://purl.org/dc/dcmitype/StillImage" /><dc:title></dc:title></cc:Work></rdf:RDF></metadata><defs
     id="defs65"><clipPath
       clipPathUnits="userSpaceOnUse"
       id="clipPath16"><path
         d="m 0,75.51 367.92,0 L 367.92,0 0,0 0,75.51 Z"
         id="path18"
         inkscape:connector-curvature="0" /></clipPath></defs><sodipodi:namedview
     pagecolor="#ffffff"
     bordercolor="#666666"
     borderopacity="1"
     objecttolerance="10"
     gridtolerance="10"
     guidetolerance="10"
     inkscape:pageopacity="0"
     inkscape:pageshadow="2"
     inkscape:window-width="1183"
     inkscape:window-height="802"
     id="namedview63"
     showgrid="false"
     inkscape:zoom="1.8913973"
     inkscape:cx="220.23593"
     inkscape:cy="15.858935"
     inkscape:window-x="514"
     inkscape:window-y="76"
     inkscape:window-maximized="0"
     inkscape:current-layer="Layer_1" /><g
     id="g12"
     transform="matrix(0.9979834,0,0,-0.9979834,-19.274913,56.090726)"><g
       id="g14"
       clip-path="url(#clipPath16)"><g
         id="g20"
         transform="translate(124.79,50.6777)"><path
           d="M 0,0 C 1.132,0 2.124,0.096 2.124,1.41 2.124,2.713 1.132,2.809 0,2.809 l -4.11,0 L -4.11,0 0,0 Z m -6.092,4.512 5.659,0 c 1.719,0 4.54,0 4.54,-3.119 0,-3.1 -2.821,-3.1 -4.54,-3.1 l -3.677,0 0,-3.942 -1.982,0 0,10.161 z"
           style="fill:#1c5faa;fill-opacity:1;fill-rule:nonzero;stroke:none"
           id="path22"
           inkscape:connector-curvature="0" /></g><g
         id="g24"
         transform="translate(141.7637,50.1445)"><path
           d="m 0,0 c 0,2.439 -1.749,3.592 -4.066,3.592 -2.321,0 -4.069,-1.153 -4.069,-3.592 0,-2.879 2.168,-3.665 4.069,-3.665 C -2.168,-3.665 0,-2.879 0,0 m -4.066,5.299 c 4.469,0 6.046,-2.627 6.046,-5.415 0,-2.107 -1.242,-5.251 -6.046,-5.251 -4.807,0 -6.049,3.144 -6.049,5.251 0,2.788 1.574,5.415 6.049,5.415"
           style="fill:#1c5faa;fill-opacity:1;fill-rule:nonzero;stroke:none"
           id="path26"
           inkscape:connector-curvature="0" /></g><g
         id="g28"
         transform="translate(153.2715,50.6777)"><path
           d="M 0,0 C 1.623,0 2.444,0.236 2.444,1.434 2.444,2.627 1.623,2.866 0,2.866 l -3.828,0 L -3.828,0 0,0 Z m -5.814,4.515 6.104,0 c 2.405,0 4.138,-0.546 4.138,-3.033 0,-1.875 -1.338,-2.909 -2.833,-2.99 l 3.113,-4.138 -2.446,0 -2.948,3.998 -3.142,0 0,-3.998 -1.986,0 0,10.161 z"
           style="fill:#1c5faa;fill-opacity:1;fill-rule:nonzero;stroke:none"
           id="path30"
           inkscape:connector-curvature="0" /></g><g
         id="g32"
         transform="translate(165.4668,53.4863)"><path
           d="m 0,0 -4.543,0 0,1.706 11.065,0 0,-1.706 -4.539,0 0,-8.455 L 0,-8.455 0,0 Z"
           style="fill:#1c5faa;fill-opacity:1;fill-rule:nonzero;stroke:none"
           id="path34"
           inkscape:connector-curvature="0" /></g><g
         id="g36"
         transform="translate(191.0625,50.1445)"><path
           d="m 0,0 c 0,2.439 -1.747,3.592 -4.066,3.592 -2.317,0 -4.067,-1.153 -4.067,-3.592 0,-2.879 2.166,-3.665 4.067,-3.665 C -2.168,-3.665 0,-2.879 0,0 m -4.066,5.299 c 4.471,0 6.049,-2.627 6.049,-5.415 0,-2.107 -1.243,-5.251 -6.049,-5.251 -4.809,0 -6.053,3.144 -6.053,5.251 0,2.788 1.58,5.415 6.053,5.415"
           style="fill:#1c5faa;fill-opacity:1;fill-rule:nonzero;stroke:none"
           id="path38"
           inkscape:connector-curvature="0" /></g><g
         id="g40"
         transform="translate(196.7598,55.1924)"><path
           d="m 0,0 9.347,0 0,-1.706 -7.367,0 0,-2.363 6.333,0 0,-1.702 -6.333,0 0,-4.39 -1.98,0 L 0,0 Z"
           style="fill:#1c5faa;fill-opacity:1;fill-rule:nonzero;stroke:none"
           id="path42"
           inkscape:connector-curvature="0" /></g><g
         id="g44"
         transform="translate(127.0493,28.2441)"><path
           d="M 0,0 C 1.521,0 2.854,0.133 2.854,1.898 2.854,3.645 1.521,3.777 0,3.777 l -5.522,0 L -5.522,0 0,0 Z m -8.191,6.072 7.61,0 c 2.309,0 6.103,0 6.103,-4.191 0,-4.168 -3.794,-4.168 -6.103,-4.168 l -4.941,0 0,-5.3 -2.669,0 0,13.659 z"
           style="fill:#1c5faa;fill-opacity:1;fill-rule:nonzero;stroke:none"
           id="path46"
           inkscape:connector-curvature="0" /></g><g
         id="g48"
         transform="translate(144.9487,28.2441)"><path
           d="M 0,0 C 2.182,0 3.289,0.322 3.289,1.934 3.289,3.533 2.182,3.852 0,3.852 l -5.145,0 L -5.145,0 0,0 Z m -7.811,6.072 8.209,0 c 3.232,0 5.557,-0.736 5.557,-4.08 0,-2.517 -1.802,-3.906 -3.809,-4.019 l 4.185,-5.56 -3.287,0 -3.961,5.374 -4.228,0 0,-5.374 -2.666,0 0,13.659 z"
           style="fill:#1c5faa;fill-opacity:1;fill-rule:nonzero;stroke:none"
           id="path50"
           inkscape:connector-curvature="0" /></g><path
         d="m 157.388,34.316 2.666,0 0,-13.659 -2.666,0 0,13.659 z"
         style="fill:#1c5faa;fill-opacity:1;fill-rule:nonzero;stroke:none"
         id="path52"
         inkscape:connector-curvature="0" /><g
         id="g54"
         transform="translate(167.2124,34.3164)"><path
           d="m 0,0 2.815,0 9.131,-9.867 0,9.867 2.555,0 0,-13.659 -2.444,0 -9.502,10.22 0,-10.22 -2.555,0 L 0,0 Z"
           style="fill:#1c5faa;fill-opacity:1;fill-rule:nonzero;stroke:none"
           id="path56"
           inkscape:connector-curvature="0" /></g><g
         id="g58"
         transform="translate(202.6748,25.5234)"><path
           d="m 0,0 c -0.262,-1.521 -1.352,-5.203 -7.623,-5.203 -4.324,0 -7.725,2.403 -7.725,7.381 0,3.98 2.503,6.949 7.928,6.949 6.104,0 7.006,-3.965 7.215,-4.695 l -2.668,0 c -0.148,0.468 -1.201,2.406 -4.395,2.406 -3.776,0 -5.353,-2.125 -5.353,-4.959 0,-3.139 2.271,-4.79 5.201,-4.79 3.119,0 4.49,1.856 4.754,2.911 L 0,0 Z"
           style="fill:#1c5faa;fill-opacity:1;fill-rule:nonzero;stroke:none"
           id="path60"
           inkscape:connector-curvature="0" /></g><g
         id="g62"
         transform="translate(208.7822,34.3164)"><path
           d="m 0,0 12.244,0 0,-2.295 -9.578,0 0,-3.176 8.242,0 0,-2.291 -8.242,0 0,-3.604 9.804,0 0,-2.293 -12.47,0 L 0,0 Z"
           style="fill:#1c5faa;fill-opacity:1;fill-rule:nonzero;stroke:none"
           id="path64"
           inkscape:connector-curvature="0" /></g><g
         id="g66"
         transform="translate(246.1025,28.2441)"><path
           d="M 0,0 C 2.18,0 3.289,0.322 3.289,1.934 3.289,3.533 2.18,3.852 0,3.852 l -5.146,0 L -5.146,0 0,0 Z m -7.812,6.072 8.21,0 c 3.229,0 5.557,-0.736 5.557,-4.08 0,-2.517 -1.804,-3.906 -3.814,-4.019 l 4.192,-5.56 -3.288,0 -3.966,5.374 -4.225,0 0,-5.374 -2.666,0 0,13.659 z"
           style="fill:#1c5faa;fill-opacity:1;fill-rule:nonzero;stroke:none"
           id="path68"
           inkscape:connector-curvature="0" /></g><g
         id="g70"
         transform="translate(271.7451,26.5156)"><path
           d="m 0,0 c 0,-4.392 -2.799,-6.195 -7.249,-6.195 -4.454,0 -7.249,1.803 -7.249,6.195 l 0,7.801 2.663,0 0,-7.612 c 0,-2.255 0.81,-4.092 4.586,-4.092 3.773,0 4.582,1.837 4.582,4.092 l 0,7.612 L 0,7.801 0,0 Z"
           style="fill:#1c5faa;fill-opacity:1;fill-rule:nonzero;stroke:none"
           id="path72"
           inkscape:connector-curvature="0" /></g><g
         id="g74"
         transform="translate(285.7959,28.2441)"><path
           d="M 0,0 C 1.522,0 2.855,0.133 2.855,1.898 2.855,3.645 1.522,3.777 0,3.777 l -5.521,0 L -5.521,0 0,0 Z m -8.191,6.072 7.608,0 c 2.312,0 6.104,0 6.104,-4.191 0,-4.168 -3.792,-4.168 -6.104,-4.168 l -4.938,0 0,-5.3 -2.67,0 0,13.659 z"
           style="fill:#1c5faa;fill-opacity:1;fill-rule:nonzero;stroke:none"
           id="path76"
           inkscape:connector-curvature="0" /></g><g
         id="g78"
         transform="translate(297.0127,34.3164)"><path
           d="m 0,0 12.248,0 0,-2.295 -9.582,0 0,-3.176 8.247,0 0,-2.291 -8.247,0 0,-3.604 9.807,0 0,-2.293 L 0,-13.659 0,0 Z"
           style="fill:#1c5faa;fill-opacity:1;fill-rule:nonzero;stroke:none"
           id="path80"
           inkscape:connector-curvature="0" /></g><g
         id="g82"
         transform="translate(323.1953,28.2441)"><path
           d="M 0,0 C 2.185,0 3.287,0.322 3.287,1.934 3.287,3.533 2.185,3.852 0,3.852 l -5.145,0 L -5.145,0 0,0 Z m -7.812,6.072 8.208,0 c 3.23,0 5.562,-0.736 5.562,-4.08 0,-2.517 -1.806,-3.906 -3.812,-4.019 l 4.185,-5.56 -3.288,0 -3.965,5.374 -4.223,0 0,-5.374 -2.667,0 0,13.659 z"
           style="fill:#1c5faa;fill-opacity:1;fill-rule:nonzero;stroke:none"
           id="path84"
           inkscape:connector-curvature="0" /></g><g
         id="g86"
         transform="translate(338.8232,32.0215)"><path
           d="m 0,0 -6.102,0 0,2.295 14.876,0 0,-2.295 -6.104,0 0,-11.364 -2.67,0 L 0,0 Z"
           style="fill:#1c5faa;fill-opacity:1;fill-rule:nonzero;stroke:none"
           id="path88"
           inkscape:connector-curvature="0" /></g><g
         id="g90"
         transform="translate(50.9736,45.2827)"><path
           d="m 0,0 c -0.241,-0.322 -0.48,-0.653 -0.721,-0.992 26.355,-8.756 46.375,-22.933 47.416,-23.677 l 8.342,0 C 51.025,-21.695 31.811,-8.272 3.944,-2.037 19.136,-3.356 34.437,-6.914 55.159,-18.935 l 0,4.459 c -1.917,0.903 -16.818,7.794 -30.662,10.079 0,0 9.901,-0.063 30.662,-4.81 l 0,19.234 -43.968,0 C 6.923,7.328 3.138,3.932 0,0"
           style="fill:#718e3f;fill-opacity:1;fill-rule:nonzero;stroke:none"
           id="path92"
           inkscape:connector-curvature="0" /></g><g
         id="g94"
         transform="translate(20.3223,50.687)"><path
           d="M 0,0 0,-2.391 C 9.29,-2.788 15.003,-3.719 23.533,-5.51 11.136,-5.091 3.584,-6.307 0,-7.135 l 0,-22.939 18.106,0 c 0.279,1.301 2.707,11.799 10.958,23.666 C 19.98,-3.452 10.041,-0.9 0,0"
           style="fill:#1c5faa;fill-opacity:1;fill-rule:nonzero;stroke:none"
           id="path96"
           inkscape:connector-curvature="0" /></g><g
         id="g98"
         transform="translate(58.6777,55.3096)"><path
           d="m 0,0 -24.104,0 c 4.083,-2.788 8.215,-5.788 12.256,-8.847 -10.167,5.549 -17.764,8.055 -20.445,8.847 l -5.715,0 c 4.095,-1.005 16.303,-4.308 28.939,-10.712 C -6.593,-7.187 -3.601,-3.548 0,0"
           style="fill:#1c5faa;fill-opacity:1;fill-rule:nonzero;stroke:none"
           id="path100"
           inkscape:connector-curvature="0" /></g><g
         id="g102"
         transform="translate(50.0493,44.0034)"><path
           d="M 0,0 C -2.758,-3.939 -5.462,-8.953 -7.377,-15.138 -8.09,-17.8 -8.566,-20.558 -8.78,-23.39 l 36.971,0 C 21.967,-13.117 10.701,-5.52 0,0"
           style="fill:#718e3f;fill-opacity:1;fill-rule:nonzero;stroke:none"
           id="path104"
           inkscape:connector-curvature="0" /></g></g></g></svg>