<svg id="Isolation_Mode" data-name="Isolation Mode" xmlns="http://www.w3.org/2000/svg" xmlns:xlink="http://www.w3.org/1999/xlink" viewBox="0 0 419 212.17"><defs><style>.cls-1{fill:url(#linear-gradient);}.cls-2{fill:url(#linear-gradient-2);}.cls-3{fill:url(#linear-gradient-3);}.cls-4{fill:url(#linear-gradient-4);}.cls-5{fill:url(#linear-gradient-5);}.cls-6{fill:url(#linear-gradient-6);}.cls-7{fill:url(#linear-gradient-7);}.cls-8{fill:url(#linear-gradient-8);}.cls-9{fill:url(#linear-gradient-9);}.cls-10{fill:url(#linear-gradient-10);}.cls-11{fill:url(#linear-gradient-11);}</style><linearGradient id="linear-gradient" x1="443.89" y1="837.24" x2="443.89" y2="1088.78" gradientTransform="matrix(0.49, 0.2, -0.2, 0.49, 179.63, -460.53)" gradientUnits="userSpaceOnUse"><stop offset="0" stop-color="#78c8d7"/><stop offset="0.25" stop-color="#00aff0"/><stop offset="1" stop-color="#00000f"/></linearGradient><linearGradient id="linear-gradient-2" x1="762.46" y1="1201.01" x2="762.46" y2="1368.48" gradientTransform="translate(181.05 -400.18) rotate(21.84) scale(0.33)" gradientUnits="userSpaceOnUse"><stop offset="0" stop-color="#ffe600"/><stop offset="0.4" stop-color="#f6af13"/><stop offset="0.8" stop-color="#ee7f24"/><stop offset="1" stop-color="#eb6d2b"/></linearGradient><linearGradient id="linear-gradient-3" x1="-411.22" y1="1860.93" x2="-411.22" y2="1942.53" gradientTransform="translate(150.13 -348.43) scale(0.3)" gradientUnits="userSpaceOnUse"><stop offset="0" stop-color="#009be1"/><stop offset="0.09" stop-color="#0095d8"/><stop offset="0.24" stop-color="#0084c0"/><stop offset="0.44" stop-color="#006998"/><stop offset="0.66" stop-color="#004361"/><stop offset="0.91" stop-color="#00131b"/><stop offset="1"/></linearGradient><linearGradient id="linear-gradient-4" x1="-242.47" y1="1855.24" x2="-242.47" y2="1944.27" xlink:href="#linear-gradient-3"/><linearGradient id="linear-gradient-5" x1="-67.93" y1="1840.56" x2="-67.93" y2="1942" xlink:href="#linear-gradient-3"/><linearGradient id="linear-gradient-6" x1="74.7" y1="1837.7" x2="74.7" y2="1939.54" xlink:href="#linear-gradient-3"/><linearGradient id="linear-gradient-7" x1="177.15" y1="1837.34" x2="177.15" y2="1939.54" xlink:href="#linear-gradient-3"/><linearGradient id="linear-gradient-8" x1="337.42" y1="1837.69" x2="337.42" y2="1942.67" xlink:href="#linear-gradient-3"/><linearGradient id="linear-gradient-9" x1="487.86" y1="1844.09" x2="487.86" y2="1938.94" xlink:href="#linear-gradient-3"/><linearGradient id="linear-gradient-10" x1="625.57" y1="1852.73" x2="625.57" y2="1938.94" xlink:href="#linear-gradient-3"/><linearGradient id="linear-gradient-11" x1="778.02" y1="1859.02" x2="778.02" y2="1942.35" xlink:href="#linear-gradient-3"/></defs><title>logo-seaworld2</title><path class="cls-1" d="M350.24,108.94C205.59.89,122.9,9.21,141.13,22.81s43.59,24.57-12.68,48.08c-54.29,22.59-72.92,38-72.92,38A726.94,726.94,0,0,1,178.78,92.29c-2.38,1.45-4.89,2.91-7.79,4.49C129.38,119.24,115.64,133,115.64,133c138.57-45.7,234.6-24,234.6-24Z" transform="translate(-6 -14.99)"/><path class="cls-2" d="M177.59,57.42c14.4,8.72,33.68,15.19,1.19,34.87,105.41-5,170.14,16.25,171.46,16.64C227.26,34.7,162.13,48,177.59,57.42Z" transform="translate(-6 -14.99)"/><path d="M22.12,195.72c1.45.79,2.77,1.45,4.09,2.11,4.49,2.25,7.79,4.23,9.64,7,4.76-.53,9.77-.92,15.06-1.45a17.1,17.1,0,0,0-1.72-5.55C45.63,191.23,38,188.19,32,185c-7.27-3.83-14.4-6.47-14.4-14.4,0-5.15,4.09-8.45,9-8.45,5.68,0,9.51,3.3,12,5l1.59,9.11h5.94V160.59a89.48,89.48,0,0,0-20.61-2.25c-11.62,0-19.42,8.32-19.42,18C6.13,188.33,15.91,192.29,22.12,195.72Z" transform="translate(-6 -14.99)"/><path class="cls-3" d="M35.85,204.84a9.56,9.56,0,0,1,1.45,5.28c0,6.08-4.89,10.83-11.36,10.83-5.55,0-8.59-3.17-10.7-4.49l-2.38-9.11H12.6l-6.47.79H6l.66,14.4c3,.79,8.45,2.51,20.47,2.51,11.49,0,23.78-7.93,23.78-19.15a13.58,13.58,0,0,0-.13-2.38C45.63,203.78,40.61,204.31,35.85,204.84Z" transform="translate(-6 -14.99)"/><path d="M70.73,201.67c0-1.19-.13-2.51-.13-3.83H101c0-14.27-8.45-21.13-22.46-21.13s-23.78,11-23.78,24.31a10,10,0,0,0,.13,2C59.89,202.59,65.18,202.06,70.73,201.67Zm7.93-21.27c5.68,0,7.13,7.27,7.4,13.87H71C71.12,187,73.63,180.4,78.65,180.4Z" transform="translate(-6 -14.99)"/><path class="cls-4" d="M82.22,219.5c-8.32-1.19-11-8.45-11.49-17.83-5.55.4-10.83.92-15.85,1.32.92,13.47,11.23,22.59,23.91,22.59,13.34,0,20.34-5.15,23.12-7.27l-2.25-3.57C97.67,215.93,89.62,220.56,82.22,219.5Z" transform="translate(-6 -14.99)"/><path d="M117.22,191.1l1.19-8.72c2.64-.26,3.3-.92,8.72,0,4.76.79,5.81,4,5.81,8.72V198h0c4.89-.26,9.77-.4,14.79-.53v-8.72c0-6.6-5.15-12.55-15.06-12.42a61.25,61.25,0,0,0-23.51,4.49l.4,10.3Z" transform="translate(-6 -14.99)"/><path class="cls-5" d="M147.74,197.31c-5,.13-9.91.4-14.79.53l-10.7,1.06c-9,.66-16.78,5.28-16.78,13.74,0,8.19,6.21,12,13.08,12a21.24,21.24,0,0,0,14.4-5.15l.79,5.15,20.87-1.06v-2.38l-6.87-1.72V197.31Zm-14.79,18.76a13.33,13.33,0,0,1-6.87,2.77c-4.62,0-7.13-2.64-7.13-7.4,0-5,3.83-8.32,9.51-9l4.49-.53Z" transform="translate(-6 -14.99)"/><path d="M209.42,196.38h6.47l11.76-33.16h0l6.08-1.59V159.4H212.59v2.25l7.4,1.59Z" transform="translate(-6 -14.99)"/><path d="M184.85,183.17l-4.36,13.34h4.76l2.11-6.08,2,6.08c4.76,0,9.38,0,14.27-.13l-10.7-33,6.08-1.59v-2.25H173v2.11l5.28,1.59Z" transform="translate(-6 -14.99)"/><path d="M148.13,163.36,159.62,197l14.4-.4-10.44-33.29,5.42-1.59v-2.25H142.72v2.25l5.42,1.59Z" transform="translate(-6 -14.99)"/><path class="cls-6" d="M180.5,196.52,177.06,207l-3.3-10.3c-4.89.13-9.64.13-14.4.4l9.25,27.08h7l9.51-27.61Z" transform="translate(-6 -14.99)"/><path class="cls-7" d="M209.42,196.38l-2.91,9-2.91-9c-4.76,0-9.51,0-14.27.13l9,27.61h7.53l9.91-27.74Z" transform="translate(-6 -14.99)"/><path d="M238.88,196.78c.79-9.25,4.49-16.64,11.1-16.64s10.44,7.66,11.1,17.3c5.28.13,10.57.4,15.72.66V198c-1.45-14.4-14.27-21.4-26.81-21.4s-24.57,6.6-26.68,20.08C228.45,196.52,233.73,196.65,238.88,196.78Z" transform="translate(-6 -14.99)"/><path class="cls-8" d="M260.94,197.31v.4c0,.92.13,1.85.13,2.77,0,11-3.7,20.74-11.23,20.74s-11.23-9.77-11.23-20.74a19.51,19.51,0,0,1,.13-2.77,2.91,2.91,0,0,1,.13-1.06c-5.15-.13-10.3-.26-15.59-.26,0,.4-.13.92-.13,1.32a19.51,19.51,0,0,0-.13,2.77c0,15.59,13.61,24.44,26.95,24.44s26.95-8.85,26.95-24.44a17.7,17.7,0,0,0-.13-2.64C271.51,197.7,266.36,197.57,260.94,197.31Z" transform="translate(-6 -14.99)"/><path d="M285.38,198.37l14.79.79v-7a13.54,13.54,0,0,1,9.64-4.09,9.19,9.19,0,0,1,6.34,2.11l4.62-10.3c-1.19-1.32-3.7-3.43-8.59-3.43-6.08,0-11,8.59-12.68,11.89l-1.19-11.89-19.95,1.19v2.25l7.13,1.85-.13,16.64Z" transform="translate(-6 -14.99)"/><path class="cls-9" d="M300.17,199.16l-14.79-.79V220l-7.13,1.72V224h32.49v-2.64l-10.57-1.72Z" transform="translate(-6 -14.99)"/><path d="M327.91,200.87c5.15.4,10,.79,14.79,1.19V155.43l-21.93,1.32V159l7.13,1.72Z" transform="translate(-6 -14.99)"/><path class="cls-10" d="M342.71,202.06c-4.76-.4-9.64-.79-14.79-1.19V220l-7.13,1.72V224h28.93v-2.25l-7-1.72Z" transform="translate(-6 -14.99)"/><path d="M366.88,204.18c0-.92-.13-2-.13-3s.13-2.25.13-3.43c.79-8.72,4.23-15.32,11-15.45a17.83,17.83,0,0,1,9.51,2.38v21.53c5.55.66,10.44,1.19,14.79,1.72V155.17l-24.57,1.32V159l9.77,1.85v19.42a32.61,32.61,0,0,0-15.72-4.09c-11.76,0-19.29,8.59-20.47,21.4a32.19,32.19,0,0,0-.13,3.57v1.32C356.71,203.25,361.86,203.78,366.88,204.18Z" transform="translate(-6 -14.99)"/><path class="cls-11" d="M402.28,208.14c-4.36-.53-9.25-1.06-14.79-1.72v9.38c-2,1.19-4.23,2.91-8.85,2.91-7.66,0-11.23-5.28-11.76-14.4-5-.53-10.17-.92-15.72-1.45.53,14.4,8.45,22.19,20.74,22.19a26.41,26.41,0,0,0,15.59-5l.53,5,21.53-.92v-2l-7.27-1.85V208.14Z" transform="translate(-6 -14.99)"/><path d="M413.11,221.09h0a5.94,5.94,0,0,1,11.89,0v.13a6,6,0,0,1-5.94,5.94A6.12,6.12,0,0,1,413.11,221.09Zm11.36,0h0a5.47,5.47,0,0,0-5.42-5.55,5.39,5.39,0,0,0-5.42,5.55h0a5.42,5.42,0,1,0,10.83,0Zm-7.79-3.17h2.77a2.61,2.61,0,0,1,1.85.66,1.67,1.67,0,0,1,.53,1.19h0a1.85,1.85,0,0,1-1.59,1.85l2,2.51H421l-1.72-2.25H417.6v2.25h-.92Zm2.64,2.91c.92,0,1.45-.4,1.45-1.06h0c0-.66-.53-1.06-1.45-1.06h-1.85v2.11Z" transform="translate(-6 -14.99)"/></svg>