<?xml version="1.0" encoding="utf-8"?>
<!-- Generator: Adobe Illustrator 21.1.0, SVG Export Plug-In . SVG Version: 6.00 Build 0)  -->
<svg version="1.1" xmlns="http://www.w3.org/2000/svg" xmlns:xlink="http://www.w3.org/1999/xlink" x="0px" y="0px"
	 viewBox="0 0 208.2 138.9" xml:space="preserve">
<style type="text/css">
	.st0{fill:#58595C;}
	.st1{display:none;}
	.st2{display:inline;}
	.st3{fill:none;}
</style>
<g id="ECUAD_Wordmark">
	<g>
		<path class="st0" d="M37.6,54.1c-1.6-0.9-3.4-1.5-5.3-1.5c-3.6,0-6,2.4-6,6.4c0,4,2.2,6.5,6,6.5c2,0,4-0.7,5.5-1.7l1.1,4.7
			c-1.6,0.9-4.4,1.5-6.9,1.5c-6.7,0-11.1-3.9-11.1-10.9c0-6.8,4.4-11.1,11.3-11.1c2.5,0,5,0.6,6.9,1.6L37.6,54.1z"/>
		<path class="st0" d="M61.8,69.5h-5.3L54.9,65h-7.8l-1.5,4.5h-5.3l7.4-20.9h6.7L61.8,69.5z M51.1,52.7l-2.8,8.2h5.5L51.1,52.7z"/>
		<path class="st0" d="M69.2,69.5h-5.3V48.6c0,0,8.6,0,8.4,0c5.6,0,8.5,2.6,8.5,6.6c0,2.8-1.5,5-4.3,6l5.4,8.3h-6l-4.2-7l-2.4,0.2
			V69.5z M71.8,58.6c2.3-0.2,3.5-1.1,3.5-3.1c0-1.8-1.3-2.7-4-2.7c-0.1,0-2.2,0-2.2,0v5.9L71.8,58.6z"/>
		<path class="st0" d="M89.5,69.5h-5.3V48.6c0,0,8.6,0,8.4,0c5.6,0,8.5,2.6,8.5,6.6c0,2.8-1.5,5-4.3,6l5.4,8.3h-6l-4.2-7l-2.4,0.2
			V69.5z M92.1,58.6c2.3-0.2,3.5-1.1,3.5-3.1c0-1.8-1.3-2.7-4-2.7c-0.1,0-2.2,0-2.2,0v5.9L92.1,58.6z"/>
	</g>
	<g>
		<path class="st0" d="M21.8,41.9V21h15.3v4.3H27.1v4h8.1v4.3h-8.1v4.1h10.1v4.3H21.8z"/>
		<path class="st0" d="M60.7,25.7l-4.6,15.8h-5.7l-4.6-15.8l-0.1,16.1h-5L41.5,21H49l4.4,15.7L57.8,21h7.4l0.7,20.9h-5.1L60.7,25.7z
			"/>
		<path class="st0" d="M70,41.9V21h5.3v20.9H70z"/>
		<path class="st0" d="M79.7,41.9V21h5.3v16.5h8.8v4.5H79.7z"/>
		<path class="st0" d="M102.8,34v7.9h-5.2v-8l-7.3-13h5.7l4.3,8.3l4.2-8.3h5.6L102.8,34z"/>
	</g>
	<g>
		<path class="st0" d="M28.1,94.6c-4,0-6.3-2.5-6.3-6.5V77.5h1.7v10.4c0,3.2,1.6,5.1,4.7,5.1c3,0,4.6-1.8,4.6-5.1
			c0,0.1,0-10.4,0-10.4h1.7c0,0,0,10.2,0,10.3C34.5,92,32.3,94.6,28.1,94.6z"/>
		<path class="st0" d="M50.4,77.5H52v16.9h-1.9l-9.6-14.5v14.3h-1.7V77.5h1.9l9.5,14.4V77.5z"/>
		<path class="st0" d="M56.9,94.2V77.5h1.7v16.8H56.9z"/>
		<path class="st0" d="M70,94.2h-2l-6.1-16.8h1.7l5.4,15l5.4-15h1.7L70,94.2z"/>
		<path class="st0" d="M79.2,94.2V77.5h10.1v1.6H81v6h7v1.6h-7v6h8.4v1.6H79.2z"/>
		<path class="st0" d="M94.9,94.2h-1.7V77.5c0,0,4.4,0,4.5,0c4.1,0,6.1,1.9,6.1,4.8c0,2.5-1.7,4-3.9,4.7l4.6,7.2h-2l-4.3-6.9
			l-3.4,0.2V94.2z M97.9,85.9c2.2-0.1,4.2-1.3,4.2-3.5s-1.6-3.4-4.6-3.4c-0.1,0-2.6,0-2.6,0v7L97.9,85.9z"/>
		<path class="st0" d="M116.2,89.9c0-2-1.6-2.7-4.2-3.5c-2.4-0.7-4.9-1.7-4.9-4.7c0-2.7,2.3-4.6,5.4-4.6c1.9,0,3.6,0.5,5,1.4
			l-0.6,1.5c-1.3-0.9-2.9-1.4-4.4-1.4c-2.5,0-3.7,1.3-3.7,2.9c0,1.8,1.7,2.5,4.2,3.4c2.4,0.7,4.9,1.8,4.9,4.9c0,2.8-2.3,4.8-5.7,4.8
			c-2,0-3.9-0.6-5.4-1.6l0.6-1.5c1.3,0.9,2.9,1.6,4.8,1.6C114.6,93.1,116.2,91.7,116.2,89.9z"/>
		<path class="st0" d="M121.7,94.2V77.5h1.7v16.8H121.7z"/>
		<path class="st0" d="M134.1,79.1v15.1h-1.7V79.1h-5.9v-1.6H140v1.6H134.1z"/>
		<path class="st0" d="M149.2,87.5v6.7h-1.7v-6.7l-5.8-10h1.9l4.8,8.3l4.7-8.3h1.9L149.2,87.5z"/>
	</g>
	<g>
		<path class="st0" d="M56.4,117.7h-1.7l-1.8-4.8h-7.6l-1.8,4.8h-1.7l6.4-16.8h2L56.4,117.7z M49.1,102.6l-3.2,8.7h6.4L49.1,102.6z"
			/>
		<path class="st0" d="M60.9,117.7h-1.7v-16.8c0,0,4.4,0,4.5,0c4.1,0,6.1,1.9,6.1,4.8c0,2.5-1.7,4-3.9,4.7l4.6,7.2h-2l-4.3-6.9
			l-3.4,0.2V117.7z M63.9,109.3c2.2-0.1,4.2-1.3,4.2-3.5s-1.6-3.4-4.6-3.4c-0.1,0-2.6,0-2.6,0v7L63.9,109.3z"/>
		<path class="st0" d="M79.2,102.5v15.1h-1.7v-15.1h-5.9v-1.6h13.5v1.6H79.2z"/>
		<path class="st0" d="M94.2,112.1v4.8h-1.5v-4.8H88l0.1-1.5h4.6v-4.8h1.5v4.8h4.6l0.1,1.5H94.2z"/>
		<path class="st0" d="M110.9,117.7c-0.7,0-4.4,0-4.4,0v-16.8c0,0,3.9,0,4.6,0c5.5,0,8.9,3.3,8.9,8.3
			C119.9,114.4,116.6,117.7,110.9,117.7z M111,102.5h-2.7v13.6h2.8c4.3,0,7.2-2.2,7.2-6.8C118.2,105,115.5,102.5,111,102.5z"/>
		<path class="st0" d="M123.2,117.7v-16.8h10.1v1.6h-8.4v6h7v1.6h-7v6h8.4v1.6H123.2z"/>
		<path class="st0" d="M145.4,113.3c0-2-1.6-2.7-4.2-3.5c-2.4-0.7-4.9-1.7-4.9-4.7c0-2.7,2.3-4.6,5.4-4.6c1.9,0,3.6,0.5,5,1.4
			l-0.6,1.5c-1.3-0.9-2.9-1.4-4.4-1.4c-2.5,0-3.7,1.3-3.7,2.9c0,1.8,1.7,2.5,4.2,3.4c2.4,0.7,4.9,1.8,4.9,4.9c0,2.8-2.3,4.8-5.7,4.8
			c-2,0-3.9-0.6-5.4-1.6l0.6-1.5c1.3,0.9,2.9,1.6,4.8,1.6C143.8,116.5,145.4,115.1,145.4,113.3z"/>
		<path class="st0" d="M150.9,117.7v-16.8h1.7v16.8H150.9z"/>
		<path class="st0" d="M164.4,118c-4.9,0-8.1-3.4-8.1-8.7c0-5.3,3.4-8.8,8.1-8.8c2.1,0,4.1,0.6,5.3,1.4l-0.6,1.6
			c-1.3-0.8-3-1.4-4.8-1.4c-3.6,0-6.3,2.6-6.3,7.2c0,4.4,2.5,7.2,6.4,7.2c1.6,0,2.9-0.4,4-1v-4.6h-4.9v-1.6h6.5v7
			C168.4,117.4,166.3,118,164.4,118z"/>
		<path class="st0" d="M185.6,100.9h1.7v16.9h-1.9l-9.6-14.5v14.3h-1.7v-16.8h1.9l9.5,14.4V100.9z"/>
	</g>
	<g>
		<path class="st0" d="M25.9,114.2c-2.5,0-4.2-1.7-4.2-4.4c0-2.5,1.7-4.4,4.2-4.4c2.5,0,4.2,1.7,4.2,4.4
			C30.2,112.3,28.4,114.2,25.9,114.2z M25.9,106.4c-1.8,0-3,1.3-3,3.3c0,2.1,1.2,3.4,3.1,3.4c1.8,0,3-1.3,3-3.3
			C29,107.7,27.8,106.4,25.9,106.4z"/>
		<path class="st0" d="M32,105.6h5.2v1.1h-4v2.7h3.3v1.1h-3.3v3.5H32V105.6z"/>
	</g>
</g>
</svg>
