<svg xmlns="http://www.w3.org/2000/svg" width="210" height="48" viewBox="0 0 210 48">
  <path fill="#000" fill-rule="evenodd" d="M61.964533,15.5315248 L64.5348746,15.5315248 C64.9157138,15.5315248 65.2933255,15.5005413 65.6677098,15.4392197 C66.0414485,15.3785436 66.3745214,15.2662284 66.6675739,15.1029194 C66.9593355,14.9396104 67.1942939,14.7052975 67.3711582,14.3986897 C67.547377,14.0927273 67.6364546,13.6951054 67.6364546,13.2051784 C67.6364546,12.7158969 67.547377,12.3176295 67.3711582,12.0123127 C67.1942939,11.7057049 66.9593355,11.471392 66.6675739,11.308083 C66.3745214,11.144774 66.0414485,11.0324587 65.6677098,10.9717827 C65.2933255,10.9104611 64.9157138,10.8794776 64.5348746,10.8794776 L61.964533,10.8794776 L61.964533,15.5315248 Z M60.006116,9.16634684 L65.0861232,9.16634684 C66.0111105,9.16634684 66.7721433,9.29157192 67.3711582,9.54331306 C67.9695275,9.7950542 68.4420262,10.1145718 68.7892999,10.5025114 C69.1359281,10.8904509 69.3773414,11.3248658 69.5135398,11.8076924 C69.6490928,12.290519 69.7175147,12.7565628 69.7175147,13.2051784 C69.7175147,13.6544396 69.6490928,14.1198379 69.5135398,14.60331 C69.3773414,15.0861366 69.1359281,15.521197 68.7892999,15.9091365 C68.4420262,16.2970761 67.9695275,16.6165937 67.3711582,16.8676893 C66.7721433,17.1194305 66.0111105,17.245301 65.0861232,17.245301 L61.964533,17.245301 L61.964533,23.6111245 L60.006116,23.6111245 L60.006116,9.16634684 Z M79.6124908,23.977892 C78.5106392,23.977892 77.4972197,23.7842449 76.5722324,23.3963054 C75.647245,23.0090113 74.8552287,22.475191 74.1955378,21.7948444 C73.5358469,21.1144978 73.0188093,20.3127991 72.6450705,19.3871663 C72.2706863,18.4628245 72.0834941,17.4629603 72.0834941,16.3882193 C72.0834941,15.3141237 72.2706863,14.3142595 72.6450705,13.3886267 C73.0188093,12.4642849 73.5358469,11.6619407 74.1955378,10.9815941 C74.8552287,10.3012475 75.647245,9.76742722 76.5722324,9.37948767 C77.4972197,8.9921936 78.5106392,8.79854657 79.6124908,8.79854657 C80.7143424,8.79854657 81.7271164,8.9921936 82.6521037,9.37948767 C83.577091,9.76742722 84.3691074,10.3012475 85.0294438,10.9815941 C85.6891347,11.6619407 86.2055267,12.4642849 86.579911,13.3886267 C86.9536498,14.3142595 87.1408419,15.3141237 87.1408419,16.3882193 C87.1408419,17.4629603 86.9536498,18.4628245 86.579911,19.3871663 C86.2055267,20.3127991 85.6891347,21.1144978 85.0294438,21.7948444 C84.3691074,22.475191 83.577091,23.0090113 82.6521037,23.3963054 C81.7271164,23.7842449 80.7143424,23.977892 79.6124908,23.977892 Z M79.6124908,22.1414726 C80.4419456,22.1414726 81.1900686,21.9891369 81.8568599,21.6825291 C82.5230057,21.3765668 83.0942644,20.9653896 83.5706361,20.4483521 C84.0463623,19.9313145 84.4136462,19.3232628 84.6718422,18.6222605 C84.9300383,17.9219038 85.0597818,17.1776537 85.0597818,16.3882193 C85.0597818,15.5994304 84.9300383,14.8551803 84.6718422,14.154178 C84.4136462,13.4538212 84.0463623,12.8457696 83.5706361,12.3280865 C83.0942644,11.8116944 82.5230057,11.3998717 81.8568599,11.0939094 C81.1900686,10.7879471 80.4419456,10.6349659 79.6124908,10.6349659 C78.7823905,10.6349659 78.0342675,10.7879471 77.3681217,11.0939094 C76.7013304,11.3998717 76.1300716,11.8116944 75.6543454,12.3280865 C75.1779737,12.8457696 74.8106899,13.4538212 74.5524938,14.154178 C74.2942978,14.8551803 74.1651997,15.5994304 74.1651997,16.3882193 C74.1651997,17.1776537 74.2942978,17.9219038 74.5524938,18.6222605 C74.8106899,19.3232628 75.1779737,19.9313145 75.6543454,20.4483521 C76.1300716,20.9653896 76.7013304,21.3765668 77.3681217,21.6825291 C78.0342675,21.9891369 78.7823905,22.1414726 79.6124908,22.1414726 Z M90.8333035,9.16634684 L95.9133107,9.16634684 C96.838298,9.16634684 97.5993308,9.29157192 98.1983457,9.54331306 C98.796715,9.7950542 99.2692138,10.1145718 99.6164874,10.5025114 C99.9631156,10.8904509 100.204529,11.3248658 100.340727,11.8076924 C100.47628,12.290519 100.544702,12.7565628 100.544702,13.2051784 C100.544702,13.6679949 100.462725,14.113383 100.299416,14.5419885 C100.136107,14.9705939 99.9017941,15.357888 99.5958317,15.7051616 C99.2898694,16.0517898 98.9154852,16.3441968 98.4739699,16.5823827 C98.0318092,16.8199231 97.5386548,16.9670948 96.9945066,17.021316 L101.095305,23.6111245 L98.6469613,23.6111245 L94.9747681,17.245301 L92.7917205,17.245301 L92.7917205,23.6111245 L90.8333035,23.6111245 L90.8333035,9.16634684 Z M92.7917205,15.5315248 L95.3620621,15.5315248 C95.7429013,15.5315248 96.120513,15.5005413 96.4948973,15.4392197 C96.868636,15.3785436 97.2017089,15.2662284 97.4947614,15.1029194 C97.786523,14.9396104 98.0214814,14.7052975 98.1983457,14.3986897 C98.3745645,14.0927273 98.4636421,13.6951054 98.4636421,13.2051784 C98.4636421,12.7158969 98.3745645,12.3176295 98.1983457,12.0123127 C98.0214814,11.7057049 97.786523,11.471392 97.4947614,11.308083 C97.2017089,11.144774 96.868636,11.0324587 96.4948973,10.9717827 C96.120513,10.9104611 95.7429013,10.8794776 95.3620621,10.8794776 L92.7917205,10.8794776 L92.7917205,15.5315248 Z M107.644642,11.0023789 L102.992594,11.0023789 L102.992594,9.16595954 L114.255106,9.16595954 L114.255106,11.0023789 L109.60435,11.0023789 L109.60435,23.6107372 L107.644642,23.6107372 L107.644642,11.0023789 Z M119.151665,18.7753708 C119.151665,18.0679136 119.284636,17.4082227 119.549932,16.7962981 C119.814583,16.1843735 120.178639,15.6466802 120.64081,15.1851548 C121.102981,14.7223384 121.647775,14.358282 122.273255,14.0929855 C122.89938,13.8276891 123.571981,13.6953636 124.293639,13.6953636 C125.014006,13.6953636 125.687252,13.8276891 126.313377,14.0929855 C126.938212,14.358282 127.48236,14.7223384 127.945176,15.1851548 C128.407993,15.6466802 128.771404,16.1843735 129.0367,16.7962981 C129.301997,17.4082227 129.434968,18.0679136 129.434968,18.7753708 C129.434968,19.4828279 129.301997,20.1457463 129.0367,20.7647713 C128.771404,21.3837963 128.407993,21.9208441 127.945176,22.3765601 C127.48236,22.8322761 126.938212,23.1924596 126.313377,23.457756 C125.687252,23.7230525 125.014006,23.8553779 124.293639,23.8553779 C123.571981,23.8553779 122.89938,23.7230525 122.273255,23.457756 C121.647775,23.1924596 121.102981,22.8322761 120.64081,22.3765601 C120.178639,21.9208441 119.814583,21.3837963 119.549932,20.7647713 C119.284636,20.1457463 119.151665,19.4828279 119.151665,18.7753708 Z M121.110727,18.7753708 C121.110727,19.2652978 121.184958,19.7171409 121.335358,20.132191 C121.484466,20.5472411 121.694896,20.9009697 121.967292,21.1927312 C122.239044,21.4857838 122.572762,21.7168692 122.967157,21.8866331 C123.360906,22.0570425 123.803712,22.1416017 124.293639,22.1416017 C124.78292,22.1416017 125.224436,22.0570425 125.619476,21.8866331 C126.01387,21.7168692 126.346943,21.4857838 126.618694,21.1927312 C126.891091,20.9009697 127.101521,20.5472411 127.25192,20.132191 C127.401028,19.7171409 127.475905,19.2652978 127.475905,18.7753708 C127.475905,18.2854438 127.401028,17.8336007 127.25192,17.4185506 C127.101521,17.0041459 126.891091,16.6504173 126.618694,16.3580103 C126.346943,16.0656033 126.01387,15.8338724 125.619476,15.6641085 C125.224436,15.4943446 124.78292,15.4091399 124.293639,15.4091399 C123.803712,15.4091399 123.360906,15.4943446 122.967157,15.6641085 C122.572762,15.8338724 122.239044,16.0656033 121.967292,16.3580103 C121.694896,16.6504173 121.484466,17.0041459 121.335358,17.4185506 C121.184958,17.8336007 121.110727,18.2854438 121.110727,18.7753708 Z M132.923067,15.5315248 L130.841361,15.5315248 L130.841361,13.9397462 L132.923067,13.9397462 L132.923067,11.7773543 C132.923067,10.4857286 133.170935,9.52265738 133.667317,8.89072256 C134.163699,8.25749676 135.017037,7.9418521 136.227976,7.9418521 C136.432597,7.9418521 136.646899,7.94895249 136.870884,7.96186229 C137.095515,7.97606308 137.336283,8.01608346 137.595124,8.08450541 L137.39115,9.71630441 C137.21364,9.64917344 137.044521,9.60076168 136.881212,9.57429658 C136.717903,9.547186 136.540394,9.53298522 136.350619,9.53298522 C136.010446,9.53298522 135.738049,9.58397894 135.53472,9.68596637 C135.3301,9.7885993 135.170018,9.93448006 135.055121,10.1248996 C134.938933,10.3153192 134.864701,10.5425317 134.83049,10.8084737 C134.796279,11.0737701 134.779497,11.376505 134.779497,11.7160328 L134.779497,13.9397462 L136.962544,13.9397462 L136.962544,15.5315248 L134.759486,15.5315248 L134.759486,23.6111245 L132.923067,23.6111245 L132.923067,15.5315248 Z M59.3094385,28.1431105 L63.4728497,28.1431105 L67.5413739,38.8220989 L67.6039864,38.8220989 L71.7041396,28.1431105 L75.6145187,28.1431105 L69.6069422,43.3992693 L65.5384181,43.3992693 L59.3094385,28.1431105 Z M87.1937075,41.3013618 L87.096884,41.3013618 C86.0176246,43.01772 84.2380083,43.7813348 82.2034235,43.7813348 C79.3742404,43.7813348 76.6425262,42.2231217 76.6425262,39.2041645 C76.6425262,34.2455095 82.4248266,33.8962993 86.2403187,33.8962993 L87.1937075,33.8962993 L87.1937075,33.4831857 C87.1937075,31.6073914 85.7316725,30.6223735 83.6970876,30.6223735 C82.1072455,30.6223735 80.6445649,31.2581813 79.6285635,32.2109247 L77.6262532,30.2086143 C79.3116278,28.4929016 81.6947773,27.7622068 84.1095558,27.7622068 C90.6264239,27.7622068 90.6264239,32.4658932 90.6264239,34.6269941 L90.6264239,43.3992047 L87.1937075,43.3992047 L87.1937075,41.3013618 Z M86.970368,36.5660464 L86.1751242,36.5660464 C84.0779268,36.5660464 80.4554363,36.724837 80.4554363,38.9175669 C80.4554363,40.3163439 81.8858424,40.9198772 83.1251834,40.9198772 C85.7316725,40.9198772 86.970368,39.5540201 86.970368,37.4232573 L86.970368,36.5660464 Z M94.7241243,28.1431105 L98.3466147,28.1431105 L98.3466147,30.5901635 L98.4098728,30.5901635 C99.110875,29.0661614 100.541281,27.7622714 103.083221,27.7622714 C107.182083,27.7622714 108.643473,30.6547125 108.643473,33.7685568 L108.643473,43.3992693 L104.829917,43.3992693 L104.829917,35.6759801 C104.829917,33.9912509 104.704692,31.1949878 102.034945,31.1949878 C99.5239887,31.1949878 98.5383253,33.0372165 98.5383253,35.0724469 L98.5383253,43.3992693 L94.7241243,43.3992693 L94.7241243,28.1431105 Z M122.781836,32.7202163 C121.892997,31.7984565 120.906688,31.1949232 119.890041,31.1949232 C117.092487,31.1949232 115.407757,33.3876531 115.407757,35.7714481 C115.407757,38.1558886 117.092487,40.347973 119.890041,40.347973 C121.065478,40.347973 122.146674,39.8399722 122.84574,38.9175669 L125.388326,41.6512175 C123.829467,43.2094306 121.226205,43.7813348 119.890041,43.7813348 C115.281241,43.7813348 111.593556,40.5713125 111.593556,35.7714481 C111.593556,30.9722291 115.281241,27.7622068 119.890041,27.7622068 C121.829739,27.7622068 123.958565,28.4612726 125.4206,30.0820983 L122.781836,32.7202163 Z M135.284399,27.762465 C139.894489,27.762465 143.580883,30.9724873 143.580883,35.7710608 C143.580883,40.5715707 139.894489,43.7809476 135.284399,43.7809476 C130.677536,43.7809476 126.990497,40.5715707 126.990497,35.7710608 C126.990497,30.9724873 130.677536,27.762465 135.284399,27.762465 Z M135.284399,40.3482312 C138.082599,40.3482312 139.767328,38.1561467 139.767328,35.7710608 C139.767328,33.3879113 138.082599,31.1945359 135.284399,31.1945359 C132.488781,31.1945359 130.804698,33.3879113 130.804698,35.7710608 C130.804698,38.1561467 132.488781,40.3482312 135.284399,40.3482312 Z M160.671589,43.3991402 L157.049744,43.3991402 L157.049744,40.9514417 L156.985195,40.9514417 C156.285484,42.4773803 154.854433,43.7812703 152.313783,43.7812703 C148.214276,43.7812703 146.752886,40.8894746 146.752886,37.7730484 L146.752886,28.1429814 L150.565796,28.1429814 L150.565796,35.8656251 C150.565796,37.5509998 150.691667,40.3479084 153.360768,40.3479084 C155.873016,40.3479084 156.857388,38.5037432 156.857388,36.4710948 L156.857388,28.1429814 L160.671589,28.1429814 L160.671589,43.3991402 Z M163.352503,28.1431105 L167.514624,28.1431105 L171.583148,38.8220989 L171.647697,38.8220989 L175.746559,28.1431105 L179.655647,28.1431105 L173.648716,43.3992693 L169.581483,43.3992693 L163.352503,28.1431105 Z M184.858104,37.1064507 C185.109845,39.3617932 186.826203,40.7295867 188.957611,40.7295867 C190.863098,40.7295867 192.101794,39.8401013 193.057765,38.6640184 L195.79077,40.7295867 C194.009863,42.9229621 191.753875,43.7808185 189.339096,43.7808185 C184.729006,43.7808185 181.043903,40.5714416 181.043903,35.7709317 C181.043903,30.9723582 184.729006,27.7623359 189.339096,27.7623359 C193.598685,27.7623359 196.487899,30.7490187 196.487899,36.0581748 L196.487899,37.1064507 L184.858104,37.1064507 Z M192.675634,34.2456386 C192.64336,32.0212797 191.18197,30.6225026 188.79753,30.6225026 C186.540897,30.6225026 185.144056,32.0522632 184.858104,34.2456386 L192.675634,34.2456386 Z M199.804427,27.9061511 L203.665104,27.9061511 L203.665104,30.3506222 L203.729653,30.3506222 C204.565562,28.5813338 206.271593,27.5195025 208.297141,27.5195025 C208.780613,27.5195025 209.229874,27.6163261 209.681071,27.7447786 L209.681071,31.4757114 C209.038163,31.3143389 208.426239,31.1871773 207.813669,31.1871773 C204.180205,31.1871773 203.665104,34.243573 203.665104,35.0788372 L203.665104,43.34692 L199.804427,43.34692 L199.804427,27.9061511 Z M24.0000968,0 C34.1162178,0 43.1924542,6.39680698 46.59806,15.920368 C43.334462,19.1039253 40.0650546,21.9382723 36.879561,24.3485324 C36.2779642,22.8832698 35.3994521,21.4322081 34.2582256,20.034722 C34.2821088,19.9811463 34.5428868,19.3853589 34.5428868,19.3853589 C34.9050067,18.3661301 35.0876804,17.3520651 35.0876804,16.3664017 C35.0876804,13.0382547 32.9582085,10.0922378 29.6623361,8.86064272 C26.9958164,7.86400599 23.9826686,8.21450712 21.3871529,9.81790455 C18.0635243,7.89047109 14.3203272,6.04630585 10.2614854,4.33640255 C14.3099993,1.5007645 19.0569336,0 24.0000968,0 Z M0,24.0010651 C0,17.2776401 2.84919334,10.822739 7.81623972,6.28236158 C11.9131654,7.95353547 15.7112292,9.76478071 19.1084437,11.668331 C17.6619003,13.1548948 16.4696801,15.067482 15.5679304,17.3609083 C15.5679304,17.3621993 15.2329211,18.2671764 15.1980646,18.362709 C14.5564474,18.3885286 13.9464593,18.5001984 13.3868194,18.6983638 C9.90827317,19.927377 7.831086,22.7804433 7.831086,26.3299934 C7.831086,27.2775728 7.98471264,28.2148245 8.28615652,29.1172197 C9.00329603,31.2563739 10.5434354,33.0656827 12.6199771,34.218528 C12.6193316,34.280495 12.5741473,37.0625574 12.5741473,37.0625574 C12.5741473,39.6729194 12.6883991,42.4362626 12.9085112,45.2744826 C4.94445423,41.1175263 0,32.976605 0,24.0010651 Z M47.4413283,18.9071153 C47.8086122,20.6079818 48.0003227,22.3211125 48.0003227,24.0013233 C48.0003227,37.234516 37.2335477,48 24.000355,48 C21.1731083,48 18.4013738,47.510073 15.7580918,46.5444198 C15.4637483,43.238865 15.3139946,40.0294881 15.3139946,37.005367 C15.3139946,37.005367 15.3307774,35.3826048 15.3320684,35.2593162 C17.6196853,35.8092738 20.1706622,35.7085774 22.9185136,34.9578724 C22.957243,35.0037022 23.2612688,35.3658221 23.2612688,35.3658221 C26.9263617,39.2652279 31.866943,38.5551887 34.8542712,35.8396118 C36.7410388,34.1226082 37.8235257,31.5755042 37.8235257,28.850245 C37.8235257,28.3028693 37.7744684,27.734838 37.6834543,27.1629338 C40.8850853,24.8107679 44.166757,22.0332239 47.4413283,18.9071153 Z M28.7114,11.4032283 C30.477461,12.0629191 32.364874,13.7121464 32.364874,16.3638197 C32.364874,16.8079169 32.2990341,17.2842886 32.1789729,17.7767976 C30.0088351,15.6331249 27.2939037,13.5133354 24.1045371,11.4729412 C25.6291848,10.8913546 27.2590473,10.8597256 28.7114,11.4032283 Z M21.5243195,13.0800179 C25.2972092,15.3798992 28.3923343,17.7636941 30.7277175,20.1662083 C28.8164213,21.7670238 25.4811739,22.4428519 23.972018,22.5751774 C23.5305028,22.1194614 20.9672615,19.7330845 17.9366855,18.7687222 C17.9683145,18.6860995 18.0935396,18.3543176 18.0941851,18.3530266 C18.9720516,16.1196308 20.1268334,14.347115 21.5243195,13.0800179 Z M32.5118521,22.2082808 C33.4749234,23.4656956 34.1823805,24.739893 34.6155044,25.9960168 C30.952348,28.5599035 27.4912301,30.4582899 24.3251011,31.6427643 C24.203749,31.1212082 24.1391999,30.550595 24.1391999,29.9412523 C24.1391999,27.9505608 24.7414422,25.9695517 25.0112571,25.1801173 C26.4939479,24.9638781 30.1022376,24.2467386 32.5118521,22.2082808 Z M35.1287981,28.9525551 C35.1145974,30.8761157 34.3729292,32.6079656 33.0277278,33.8318149 C31.2106732,35.4829786 28.2736932,36.1568702 25.7717735,33.9931874 C28.711981,32.841633 31.8587452,31.1472215 35.1287981,28.9525551 Z M14.2903119,21.258313 C14.2903119,21.2576675 14.3096766,21.2518581 14.3212954,21.2479852 C13.564781,24.1417174 13.0483889,27.4433993 12.7856744,31.0678262 C11.8890887,30.3003385 11.2210064,29.3327488 10.8601774,28.2534893 C10.6503931,27.6286549 10.5445328,26.9818738 10.5445328,26.3305743 C10.5445328,23.9480703 11.9103898,22.0993866 14.2916028,21.2576675 C14.2909574,21.258313 14.2903119,21.258313 14.2903119,21.258313 Z M17.1051651,21.3541683 C19.0571272,21.9673839 21.1214046,23.525597 22.3181432,24.6990981 C21.909548,25.9920147 21.4280124,27.9407494 21.4280124,29.9624244 C21.4280124,30.8551372 21.5312908,31.6936289 21.7281653,32.4604711 C19.367608,33.0388303 17.2504004,33.0510946 15.4320548,32.498555 C15.6592673,28.2757588 16.2221347,24.5273977 17.1051651,21.3541683 Z"/>
</svg>
