<svg xmlns="http://www.w3.org/2000/svg" width="53" height="48" viewBox="0 0 53 48">
  <path fill="#000" fill-rule="evenodd" d="M6,14.868 L10.4583333,14.868 L12.3,23.891 L12.861,27.1743333 L13.4216667,23.891 L15.2633333,14.868 L19.7216667,14.868 L19.7216667,32.647 L16.7583333,32.647 L16.7583333,19.7533333 L16.0643333,23.6243333 L14.2756667,32.647 L11.4463333,32.647 L9.65733333,23.6243333 L8.96333333,19.7533333 L8.96333333,32.647 L6,32.647 L6,14.868 Z M22.1683333,14.868 L30.6576667,14.868 L30.6576667,17.8306667 L25.4786667,17.8306667 L25.4786667,22.062 L29.802,22.062 L29.802,25.0246667 L25.4786667,25.0246667 L25.4786667,29.6836667 L30.6576667,29.6836667 L30.6576667,32.6463333 L22.1683333,32.6463333 L22.1683333,14.868 Z M32.4966667,19.353 C32.4966667,16.6026667 34.4453333,14.467 37.6223333,14.467 C40.772,14.467 42.4276667,16.4426667 42.4276667,19.112 L42.4276667,21.2743333 L39.4643333,21.2743333 L39.4643333,19.139 C39.4643333,18.0976667 38.877,17.377 37.6756667,17.377 C36.4746667,17.377 35.8606667,18.0976667 35.8606667,19.0853333 L35.8606667,28.429 C35.8606667,29.4166667 36.4746667,30.1373333 37.6756667,30.1373333 C38.877,30.1373333 39.4643333,29.4166667 39.4643333,28.375 L39.4643333,26.2403333 L42.4276667,26.2403333 L42.4276667,28.4016667 C42.4276667,31.0716667 40.772,33.047 37.6223333,33.047 C34.4453333,33.047 32.4966667,30.9113333 32.4966667,28.162 L32.4966667,19.353 Z M0,48 L48,48 L48,0 L0,0 L0,48 Z M51.2183333,44.6563333 C52.1206667,44.6563333 52.857,45.366 52.857,46.323 C52.857,47.287 52.1206667,47.9896667 51.2183333,47.9896667 C50.3146667,47.9896667 49.579,47.287 49.579,46.323 C49.579,45.366 50.3146667,44.6563333 51.2183333,44.6563333 Z M51.2183333,47.7486667 C52.0036667,47.7486667 52.576,47.1496667 52.576,46.323 C52.576,45.5033333 52.0036667,44.8963333 51.2183333,44.8963333 C50.434,44.8963333 49.861,45.5033333 49.861,46.323 C49.861,47.1496667 50.434,47.7486667 51.2183333,47.7486667 Z M51.9593333,45.9656667 C51.9593333,46.207 51.8246667,46.3906667 51.6063333,46.4656667 L52.0263333,47.1836667 L51.656,47.1836667 L51.2776667,46.5046667 L50.8973333,46.5046667 L50.8973333,47.1836667 L50.566,47.1836667 L50.566,45.4213333 L51.3623333,45.4213333 C51.5616667,45.4213333 51.7133333,45.4773333 51.8123333,45.5866667 C51.9053333,45.6856667 51.9593333,45.812 51.9593333,45.9656667 Z M51.324,46.241 C51.5256667,46.241 51.6326667,46.1476667 51.6326667,45.9706667 C51.6326667,45.7923333 51.523,45.7023333 51.3303333,45.7023333 L50.8973333,45.7023333 L50.8973333,46.241 L51.324,46.241 Z"/>
</svg>
